<?xml version="1.0" encoding="utf-8"?><svg xmlns="http://www.w3.org/2000/svg" xmlns:xlink="http://www.w3.org/1999/xlink"><symbol fill="none" viewBox="0 0 16 16" id="ico_aperture" xmlns="http://www.w3.org/2000/svg"><path fill-rule="evenodd" clip-rule="evenodd" d="M4.64 10.6l7.38 4.29a7.77 7.77 0 01-7.38.35V10.6zm-.6-4.2v8.53a7.87 7.87 0 01-4-6.2l4-2.33zM16 7.94v.07c0 2.7-1.35 5.1-3.4 6.52l-4-2.3L16 7.94zm-4.05-6.87a7.87 7.87 0 014 6.2l-4 2.33V1.07zm-8.54.4l4 2.3L0 8.04V8a7.92 7.92 0 013.4-6.54zM8 0c1.2 0 2.34.26 3.36.76v4.62L3.98 1.1A7.99 7.99 0 018 0z" fill="#fff"/></symbol><symbol fill="none" viewBox="0 0 32 16" id="ico_iso" xmlns="http://www.w3.org/2000/svg"><path fill-rule="evenodd" clip-rule="evenodd" d="M28.9 0C30.6 0 32 1.4 32 3.13v9.75A3.11 3.11 0 0128.9 16H3.1C1.4 16 0 14.6 0 12.87V3.13A3.11 3.11 0 013.1 0h25.8zM12.7 2.91c-.68 0-1.28.12-1.81.35a2.8 2.8 0 00-1.23 1c-.3.44-.44.95-.44 1.54a2.4 2.4 0 001.47 2.35c.4.18.92.37 1.56.56.47.13.84.25 1.1.36.28.11.5.26.68.45.18.2.27.44.27.73 0 .36-.13.65-.4.88-.26.22-.63.33-1.09.33-.45 0-.8-.12-1.06-.36-.25-.22-.4-.53-.43-.92v-.04H9.2v.06c.02.58.19 1.09.5 1.52.32.44.75.79 1.3 1.02.56.24 1.18.36 1.87.36.72 0 1.35-.14 1.88-.4a2.83 2.83 0 001.61-2.57c0-.63-.15-1.12-.44-1.5-.3-.38-.64-.67-1.05-.86-.4-.19-.93-.38-1.57-.57-.47-.14-.83-.27-1.1-.38a2 2 0 01-.64-.42.9.9 0 01-.26-.67c0-.38.11-.67.34-.87.23-.2.54-.3.93-.3.44 0 .8.12 1.07.34.25.21.4.48.42.8v.05h2.18v-.06a2.76 2.76 0 00-1.05-2.03 3.9 3.9 0 00-2.48-.75zm10.68 0A5.08 5.08 0 0019 5.38 5.09 5.09 0 0018.33 8c0 .98.23 1.85.68 2.63a5.08 5.08 0 004.38 2.47c.93 0 1.78-.22 2.55-.66a4.82 4.82 0 001.83-1.81c.45-.78.67-1.65.67-2.63 0-.97-.22-1.84-.67-2.62a4.84 4.84 0 00-1.82-1.81 5.07 5.07 0 00-2.56-.66zm-16.63.14H4.78V13h1.98V3.05zM23.4 4.71c.6 0 1.12.13 1.57.4.46.26.81.64 1.06 1.14.26.5.39 1.08.39 1.75 0 .66-.13 1.25-.39 1.75a2.78 2.78 0 01-2.63 1.57c-.59 0-1.12-.14-1.57-.4a2.76 2.76 0 01-1.07-1.17A3.84 3.84 0 0120.37 8c0-.67.13-1.25.38-1.75s.61-.88 1.07-1.14c.45-.27.98-.4 1.57-.4z" fill="#fff"/></symbol><symbol fill="none" viewBox="0 0 10 16" id="ico_location" xmlns="http://www.w3.org/2000/svg"><path fill-rule="evenodd" clip-rule="evenodd" d="M5 6.44a1.7 1.7 0 01-1.74-1.66c0-.92.78-1.66 1.74-1.66s1.74.74 1.74 1.66A1.7 1.7 0 015 6.44zM5 0a4.9 4.9 0 00-5 4.78c0 1.93 2.66 7.7 4.1 10.67.35.73 1.44.73 1.8 0C7.34 12.47 10 6.71 10 4.78A4.9 4.9 0 005 0z" fill="#fff"/></symbol><symbol fill="none" viewBox="0 0 16 16" id="ico_shutter" xmlns="http://www.w3.org/2000/svg"><path fill-rule="evenodd" clip-rule="evenodd" d="M8.373 0a.117.117 0 01.117.117v.122a.117.117 0 01-.117.117h-.134v.395a7.625 7.625 0 017.386 7.622 7.626 7.626 0 11-15.25 0A7.626 7.626 0 017.761.751V.356h-.134A.117.117 0 017.51.24V.117c0-.065.053-.117.117-.117h.746zm-.182 1.75v.67a.191.191 0 11-.382 0v-.67a6.624 6.624 0 00-6.43 6.432h.669a.191.191 0 010 .382h-.67a6.625 6.625 0 006.43 6.432v-.67a.191.191 0 11.383 0v.67a6.624 6.624 0 006.43-6.432h-.669a.191.191 0 010-.382h.67a6.623 6.623 0 00-6.43-6.431zM8 8.018a.356.356 0 01.356.356.356.356 0 01-.006.06l2.266 2.049a.413.413 0 01.121.196l.03.111a.077.077 0 01-.086.096l-.114-.019a.412.412 0 01-.207-.1l-2.266-2.05A.348.348 0 018 8.73a.356.356 0 010-.713z" fill="#fff"/></symbol></svg>