<svg width="128" height="36" fill="none" xmlns="http://www.w3.org/2000/svg"><path fill-rule="evenodd" clip-rule="evenodd" d="M53 .02c.05.06.07.15.04.27l-.18 1.23c3.7-.06 6.58.07 8.6.4.21.02.26.14.14.35-.33.55-.91.82-1.77.79a66.55 66.55 0 0 0-7.15.13c-.44 4.99-.66 10.63-.66 16.94 0 5.34.2 9.58.57 12.72 3.27-.1 3.63 0 5.58.32.23.02.29.14.17.35-.32.55-.9.83-1.72.83-2.65-.03-3.23.12-6.23.43-2.11.22-4.1.5-6.19 1.18-.17.05-.3.05-.35 0-.03-.06-.03-.18 0-.36.3-1.17.85-1.87 1.68-2.1 1.82-.54 3.12-.54 5.43-.61-.26-.32-.42-.7-.48-1.14a81.6 81.6 0 0 1-.36-8.67c0-8.1.37-14.68 1.1-19.76-2.94.24-5.61.68-8.03 1.32-.2.06-.33.06-.4 0-.08-.06-.1-.17-.04-.35.3-1.11.84-1.77 1.64-1.98 1.47-.38 3.85-.64 7.15-.8.23-.75.64-1.25 1.23-1.49.12-.03.2-.03.22 0Zm-41.52.8c2.5-.04 4.35 1.15 5.56 3.56.9 1.79 1.3 3.74 1.19 5.85-.15 2.52-.94 3.99-2.38 4.4-.18.06-.3.07-.36.04-.06-.05-.06-.19 0-.4.3-1.16.44-2.43.44-3.8 0-2.29-.38-4.23-1.14-5.84-.83-1.75-1.9-2.6-3.23-2.54-1.88.06-3.82 1.7-5.82 4.92A24.39 24.39 0 0 0 2.3 19.44c-.06 3.78.61 6.84 2.03 9.17 1.4 2.32 3.32 3.46 5.73 3.4a6.75 6.75 0 0 0 5.1-2.53c1.45-1.65 3.23-4.23 3.26-7.6.12-5.72.56-10.3 1.34-13.72.2-.9.6-1.46 1.2-1.67.17-.06.28-.06.3 0l-.04.26c-.74 4.11-1.1 9.77-1.1 16.99v3.65a26.6 26.6 0 0 1 2.62-7.57c.27-.5.58-.75.94-.75.23 0 .5.12.8.36.6.47.89 1.29.89 2.46-.06 5.2.34 7.92 1.2 8.18.34.12.73-.2 1.14-.94.2-.39.38-.81.51-1.29a17.03 17.03 0 0 1 .63-6.66c.21-.64.6-1.02 1.15-1.14.12 0 .22.06.31.18a26.58 26.58 0 0 0-.57 5.5c0 3.17.35 4.87 1.06 5.1.4.15.9-.22 1.48-1.1a8.87 8.87 0 0 0 1.23-3.44 30.59 30.59 0 0 1-.33-4.83c0-2.61.25-5.51.75-8.71.74-4.43 1.7-6.65 2.91-6.65.38 0 .75.24 1.1.7.8 1 1.2 2.66 1.2 4.98 0 2.29-.37 4.62-1.1 7-.8 2.46-1.79 4.22-2.96 5.28.23 4.45.98 6.68 2.25 6.68.56 0 1.15-.41 1.76-1.25.54-.73.98-1.63 1.31-2.68a28.85 28.85 0 0 1-.42-5.35c0-2.61.25-5.51.75-8.71.73-4.43 1.7-6.65 2.91-6.65.38 0 .75.24 1.1.7.8 1 1.2 2.66 1.2 4.98 0 2.29-.37 4.62-1.1 7-.8 2.46-1.79 4.22-2.97 5.28.24 4.45.99 6.68 2.25 6.68.56 0 1.15-.41 1.77-1.25a9.61 9.61 0 0 0 1.46-3.15c.09-.26.17-.29.26-.08.15.26.18.79.09 1.58-.09 1-.38 1.9-.88 2.68-.6 1-1.36 1.5-2.3 1.5-.26 0-.53-.04-.8-.13-1.31-.37-2.28-1.53-2.9-3.44-.14.75-.4 1.45-.8 2.07-.59 1-1.35 1.5-2.3 1.5-.26 0-.52-.04-.79-.13-1.37-.39-2.36-1.61-2.98-3.67a5.68 5.68 0 0 1-.73 2.46c-.52.9-1.19 1.34-1.98 1.34-.2 0-.43-.04-.66-.13a3.2 3.2 0 0 1-1.87-1.95c-.33.86-.9 1.29-1.7 1.29-.21 0-.42-.05-.63-.13-1.47-.5-2.34-1.63-2.6-3.4a51.7 51.7 0 0 1-.26-6.42c-.06-.4-.17-.45-.32-.13a29.92 29.92 0 0 0-2.69 10.7c-.02.32-.17.43-.43.35-.92-.33-1.42-1.07-1.5-2.25-.07-.77-.12-1.62-.15-2.55a10.67 10.67 0 0 1-2.19 3.52 7.72 7.72 0 0 1-5.34 2.38 9.2 9.2 0 0 1-7.37-3.04C1.21 27.82.03 24.45 0 20.17c-.03-5.25 1.24-9.84 3.8-13.77C6.15 2.74 8.7.87 11.48.81Zm84.61 9.01c.12-.03.2-.03.22 0 .03.03.03.12 0 .27-.2 1.05-.42 2.55-.66 4.49a39.7 39.7 0 0 1 7.1.4c.15.04.18.13.1.28-.3.42-.73.62-1.28.6a69.22 69.22 0 0 0-6.05 0 92.05 92.05 0 0 0-.49 7.23c-.11 5 .37 7.5 1.46 7.5.44 0 .91-.35 1.41-1.05a6.79 6.79 0 0 0 1.1-3.22c.33-2.1.52-3.56.58-4.35-.91-.47-1.34-1.3-1.28-2.51.03-.82.2-1.48.53-1.98.26-.41.56-.62.88-.62.7 0 1.06 1.37 1.06 4.1 1.44.08 2.74-.65 3.88-2.2.18-.27.4-.27.67 0 .44.47.66.92.66 1.36 0 .2-.05.43-.13.66a17.46 17.46 0 0 0-1.6 7.35c0 1.93.4 2.9 1.2 2.9 1.01 0 1.9-1.2 2.64-3.62l-.04-.78c-.03-2.08.2-3.9.7-5.45.21-.65.6-1.03 1.16-1.15.11 0 .22.06.3.18a26.62 26.62 0 0 0-.57 5.5c0 3.17.35 4.87 1.06 5.1.41.15.9-.22 1.48-1.1.35-.53.62-1.16.85-1.87a7.43 7.43 0 0 1-.21-1.78c0-.56.06-1.13.18-1.72.32-1.81.86-3.25 1.63-4.3.7-.95 1.47-1.42 2.3-1.42.38 0 .74.12 1.1.36 1 .7 1.5 1.71 1.5 3.03 0 .47-.06.96-.18 1.45a5.27 5.27 0 0 1-4.63 4.14c.17 1.67.63 2.64 1.36 2.9.21.1.45.14.71.14.85 0 1.71-.4 2.58-1.17a6.42 6.42 0 0 0 1.52-2.08l-.13-.5c-.23-.93-.16-1.6.22-2.02.18-.17.33.13.44.93.77-3.96 1.83-6.57 3.18-7.84.27-.26.55-.4.84-.4.35 0 .7.18 1.02.54.17.2.14.4-.1.57-.4.35-.61.92-.61 1.71 0 1.24.45 2.88 1.37 4.93.59 1.38.88 2.54.88 3.48a3 3 0 0 1-.93 2.3c-.61.58-1.3.87-2.07.87-1.5 0-2.7-1.02-3.62-3.04-.06.15-.18.3-.35.48l-.07.04c-.24.44-.53.84-.88 1.17a3.86 3.86 0 0 1-2.76 1.13c-.53 0-1.06-.1-1.59-.31a4.04 4.04 0 0 1-1.9-1.72l-.18-.3c-.13.45-.3.87-.52 1.25-.53.9-1.2 1.34-1.99 1.34-.2 0-.43-.04-.66-.13-.98-.35-1.66-1.16-2.05-2.44-.49 1.95-1.36 2.92-2.63 2.92-1.15 0-2.01-.63-2.6-1.89a7.45 7.45 0 0 1-.7-3.3c0-1.64.33-3.45 1-5.41-.7.32-1.5.48-2.42.48h-.35c-.03.56-.14 1.9-.31 4.02a52.86 52.86 0 0 0-.22 4.16c0 .76.04 1.44.13 2.03.03.15 0 .23-.09.26-.06.06-.16.06-.3 0-.76-.24-1.17-.9-1.27-1.96-.48.7-1.09 1.04-1.83 1.04-.2 0-.42-.03-.66-.09-1.2-.3-2.03-1.14-2.47-2.55-.35-1.2-.49-3.14-.4-5.8.06-2.44.31-4.94.75-7.49-1.09.09-2.17.24-3.26.44-.15.03-.24 0-.27-.09-.06-.05-.06-.13 0-.22.12-.67.56-1.05 1.33-1.14.53-.06 1.32-.12 2.38-.18.35-1.73.65-2.99.88-3.78.15-.53.47-.88.97-1.06ZM74.06 6.01c.12-.03.19-.03.22 0 .06.03.07.1.04.22a85.51 85.51 0 0 0-1.28 21.2c.18 2.06.52 3.19 1.02 3.4.35.14.76-.21 1.23-1.06.24-.44.45-.94.62-1.52a23.11 23.11 0 0 1 .66-8.2c.24-.89.65-1.37 1.24-1.46.15-.03.25-.03.3 0 .04.03.04.12 0 .26a33.97 33.97 0 0 0-.56 6.47c0 1.9.16 3.3.48 4.18.27.74.66 1.1 1.2 1.1.82 0 1.39-1.48 1.71-4.44l.62-5.5c.15-.85.6-1.37 1.37-1.54.15-.03.25-.02.3.04.04.03.04.12 0 .27a48.23 48.23 0 0 0-.48 6.46c0 3.03.41 4.54 1.24 4.54.32 0 .67-.4 1.04-1.17a8.5 8.5 0 0 0 .6-1.84l-.14-.51c-.24-.94-.16-1.62.22-2.03.18-.17.32.13.44.93.77-3.96 1.82-6.57 3.18-7.84.26-.26.54-.4.84-.4.35 0 .69.18 1.01.54.18.2.15.4-.09.57-.4.35-.61.92-.61 1.71 0 1.24.45 2.88 1.36 4.93.6 1.38.89 2.54.89 3.48a3 3 0 0 1-.93 2.3c-.62.58-1.3.87-2.07.87-1.43 0-2.59-.92-3.48-2.74-.27 1.61-.98 2.43-2.13 2.43-1.2 0-2.07-.84-2.6-2.51-.39 1.26-.99 2.13-1.81 2.6-.36.2-.74.3-1.15.3-.65 0-1.18-.25-1.59-.74a3.9 3.9 0 0 1-.52-.88c-.4 1.08-1.02 1.62-1.86 1.62-.2 0-.41-.03-.62-.08-1.41-.47-2.31-1.8-2.7-3.96-.4 2.6-1.45 3.91-3.13 3.91-1.2 0-2.13-.53-2.78-1.59a4.8 4.8 0 0 1-.16-.29l-.12.25c-.4.7-.94 1.06-1.61 1.06-1.74 0-2.78-1.16-3.14-3.48a51.9 51.9 0 0 1-.26-6.42c-.06-.41-.16-.45-.31-.13a32.23 32.23 0 0 0-2.74 10.38c-.03.32-.16.46-.4.4-.9-.18-1.4-.65-1.45-1.41-.15-1.5-.18-3.39-.09-5.68.09-2.46.27-4.38.53-5.76.15-.73.53-1.19 1.15-1.36.14-.03.25-.03.3 0 .07.02.08.11.05.26a50.93 50.93 0 0 0-.4 9.5c.68-3.22 1.55-5.78 2.6-7.65.3-.53.61-.8.94-.8.5 0 .92.3 1.27.89.27.44.4 1.1.4 1.98-.06 5.19.34 7.9 1.2 8.14.4.11.82-.23 1.23-1.04.12-.23.22-.48.3-.74a7.85 7.85 0 0 1-.12-1.45c0-.8.08-1.65.26-2.56.38-1.95.99-3.46 1.81-4.55.82-1.09 1.66-1.63 2.52-1.63.79 0 1.48.5 2.07 1.5.35-5.29.99-9.58 1.9-12.9.11-.4.44-.69.97-.83Zm-4.43 13.5c-.5-.11-1.09.44-1.76 1.68a12.85 12.85 0 0 0-1.36 4.35c-.09.65-.13 1.25-.13 1.8a6 6 0 0 0 .47 2.62c.3.63.66.97 1.04 1 .66.05 1.33-.68 2.01-2.2.74-1.7 1.08-3.64 1.02-5.81-.03-1-.19-1.84-.49-2.51-.23-.56-.5-.87-.8-.93Zm54.66 1.1c-.65 1.03-1.4 3.32-2.25 6.87.47 1 1.08 1.79 1.81 2.37.65.53 1.25.8 1.81.8.62 0 .93-.34.93-1.02 0-.58-.4-1.8-1.2-3.65-.79-1.85-1.19-3.31-1.19-4.4 0-.35.03-.67.1-.97Zm-35.27 0c-.65 1.03-1.4 3.32-2.25 6.87.47 1 1.07 1.79 1.8 2.37.66.53 1.26.8 1.82.8.62 0 .92-.34.92-1.02 0-.58-.4-1.8-1.19-3.65-.8-1.85-1.19-3.31-1.19-4.4 0-.35.03-.67.09-.97Zm28.48-.79c-.47-.12-1 .37-1.6 1.45a10.42 10.42 0 0 0-1.18 4.1 9.3 9.3 0 0 0-.05 1.5c1.06-.24 1.91-.99 2.56-2.25a7.1 7.1 0 0 0 .8-3.3c0-.91-.18-1.41-.53-1.5ZM37.15 7.9c-.32-.18-.7.86-1.14 3.12a54.1 54.1 0 0 0-.89 7.4 89.71 89.71 0 0 0-.09 4.4c1.71-2.7 2.56-6.59 2.56-11.67 0-2.02-.14-3.1-.44-3.25Zm6.8 0c-.33-.18-.7.86-1.15 3.12a54.11 54.11 0 0 0-.88 7.4 89.71 89.71 0 0 0-.09 4.4c1.7-2.7 2.56-6.59 2.56-11.67 0-2.02-.15-3.1-.44-3.25Zm-13.81 9.02c.55-.09.88.22.97.92.05.41-.03.76-.27 1.06-.23.3-.51.47-.84.53-.32.05-.59-.01-.8-.2-.2-.2-.27-.48-.21-.86.12-.88.5-1.36 1.15-1.45Zm80.73 0c.55-.09.88.22.97.92.05.41-.03.76-.27 1.06-.23.3-.51.47-.84.53-.32.05-.59-.01-.8-.2-.2-.2-.27-.48-.21-.86.11-.88.5-1.36 1.15-1.45Z" fill="#fff"/></svg>