<svg width="128" height="30" fill="none" xmlns="http://www.w3.org/2000/svg"><path fill-rule="evenodd" clip-rule="evenodd" d="M95.59 12.68c.14 0 .14.02.29.02.1 0 .2.01.26.05.09.04.16.1.2.18.04.08.05.17.05.28 0 .09-.03.2-.1.31-.03.09-.1.18-.17.28-.07.1-.13.18-.17.26a.64.64 0 0 0-.1.3 3.52 3.52 0 0 0 .19.53l.1.25.14.25.14.25.14.24.15.25c.05.07.08.16.13.25l.15.24.16.23.14.24.16.24.15.24.15.24.14.24.14.25.17.23.16.24.14.24.15.24.16.24c.04-.1.1-.17.14-.26l.1-.27.16-.25.11-.28c.05-.08.1-.17.13-.26l.13-.26.13-.26.13-.27.14-.25.11-.27.12-.27.12-.27c.05-.09.1-.17.13-.26l.13-.26.11-.27.11-.28.1-.27c.05-.14.07-.23.07-.29 0-.07-.03-.15-.05-.25a2.77 2.77 0 0 0-.15-.49 3.69 3.69 0 0 1-.08-.24c-.03-.09-.03-.18-.05-.25-.02-.1-.05-.18-.05-.25 0-.1.04-.19.07-.26a.35.35 0 0 1 .16-.2.54.54 0 0 1 .26-.05l.28-.02c.14 0 .14.02.27.02h.56l.28-.02c.14 0 .14.02.27.02H103.11l.12-.01H103.59c.14 0 .14.02.27.02l.28-.02h.56c.12 0 .22.02.3.04.13.03.23.07.29.15.06.07.09.18.09.3a.7.7 0 0 1-.07.26.64.64 0 0 1-.15.23c-.06.06-.12.13-.2.17l-.26.12-.24.15-.25.13c-.1.05-.17.1-.24.15l-.23.15-.2.2-.19.22-.14.24-.15.24-.14.25-.14.25-.13.26c-.05.08-.07.18-.12.27l-.13.25-.14.26-.12.26-.14.26c-.05.08-.07.17-.12.26l-.12.26-.14.26-.12.26-.12.27-.14.25-.12.27-.12.26-.11.27-.13.26-.13.26-.12.26-.12.27-.12.26-.12.26-.11.27-.14.26-.11.26-.11.27-.13.26-.11.27-.12.26-.13.26-.11.27-.14.25-.1.27-.13.27c-.04.09-.1.17-.13.25l-.11.27-.13.26-.13.26-.12.26-.12.27-.14.25-.12.26-.12.26-.16.25-.15.25-.15.24-.16.24-.17.23-.19.23-.2.2c-.06.08-.13.14-.2.2l-.2.2-.21.2c-.08.06-.14.13-.22.18l-.23.17-.23.16a3.06 3.06 0 0 1-.52.22 2 2 0 0 1-.28.06c-.09.01-.18.03-.28.03a2.47 2.47 0 0 1-.55-.07l-.27-.08-.26-.1-.25-.13-.24-.14-.23-.16a2.36 2.36 0 0 1-.2-.19c-.07-.07-.11-.15-.16-.22-.06-.08-.1-.16-.14-.24-.04-.08-.08-.17-.1-.26-.02-.09-.01-.18-.01-.27 0-.1 0-.18.02-.27.01-.09.02-.17.05-.26a1.84 1.84 0 0 1 .22-.48l.17-.2c.08-.08.14-.17.22-.23a1.43 1.43 0 0 1 .55-.29c.1-.02.2-.05.31-.05.1 0 .2 0 .3.02.1.01.19.05.28.08a1.32 1.32 0 0 1 .7.52l.12.27.1.28.2-.2.19-.2.16-.23c.06-.08.12-.15.17-.24l.15-.24.15-.24.14-.25.14-.25.14-.25.13-.26.12-.26.13-.27.14-.25.12-.27.1-.27.1-.27c.04-.1.08-.19.1-.28l.1-.27c-.04-.1-.1-.18-.14-.26l-.13-.27-.12-.27-.15-.26-.13-.26-.15-.26-.14-.25-.14-.27-.15-.25-.14-.26-.15-.26-.15-.25-.14-.26-.14-.26-.14-.26-.16-.25-.16-.25-.14-.26-.16-.25-.15-.25-.15-.25-.17-.25-.15-.25-.15-.26-.15-.23-.14-.24c-.05-.08-.12-.14-.17-.23l-.15-.23-.14-.24-.15-.24-.15-.23-.16-.23-.13-.25a2.85 2.85 0 0 0-.47-.4l-.26-.15-.27-.16-.23-.13a1.28 1.28 0 0 1-.2-.18.82.82 0 0 1-.14-.22.66.66 0 0 1 .01-.57c.05-.09.13-.16.23-.2.08-.03.19-.03.3-.03H92.14l.3-.02h.28c.14 0 .14.02.29.02h2.38l.11-.02h.09Zm-44.01.6a3.88 3.88 0 0 1 1.15.21c.09.02.18.06.27.1.09.02.19.05.28.09l.27.1.27.12.27.12.27.1.27.13.26.13.27.13c.08.05.18.08.27.12l.25.15.26.13.27.13.26.13.27.12.25.15.27.12.26.14.26.12.27.12.26.14.27.13.27.1.27.13.26.12.28.1.27.1.28.1.27.12c.04.14 0 .15 0 .3l-.01.3.02.3v.61l-.02.3.01.3v1.2c0 .15.02.16 0 .3l-.07-.03-.27-.1c-.1-.03-.18-.08-.26-.11l-.28-.1-.25-.11-.27-.1-.27-.1-.28-.07-.27-.1-.07.29-.07.29-.1.28-.07.28-.09.29-.11.27-.1.28c-.02.1-.06.18-.1.28-.03.09-.08.17-.12.25l-.13.26-.14.25-.13.25-.16.24-.09.11-.08.12-.14.25-.17.23-.2.21-.16.23-.2.2-.18.23-.2.2c-.06.08-.13.14-.2.2l-.2.2-.22.19-.2.19-.23.18-.23.17-.2.2-.25.14-.23.16-.24.16-.23.17-.25.14c-.08.04-.15.1-.23.16l-.25.13-.25.14-.26.11c-.09.04-.16.1-.25.15l-.26.12-.25.13-.27.1-.26.11-.27.11-.26.11-.27.1-.27.08c-.1.03-.18.08-.27.1l-.27.08-.28.08-.27.1-.28.06-.27.05-.28.07-.28.06-.28.06-.28.04-.28.04c-.1 0-.2.02-.29.04-.1 0-.18.03-.28.04l-.28.03-.29.03-.28.02-.29.01-.28.02-.29-.01h-.28l-.28.01h-.29l-.28-.02c-.1 0-.19-.03-.28-.04l-.28-.02c-.1-.01-.2 0-.29-.02-.1 0-.18-.04-.28-.06l-.28-.04-.27-.05c-.1-.02-.19-.03-.28-.06l-.28-.06-.27-.07c-.1-.02-.18-.06-.27-.09-.1-.02-.19-.03-.28-.06l-.26-.1-.27-.1c-.09-.03-.17-.08-.26-.12a8.9 8.9 0 0 1-.26-.11l-.13-.06-.13-.06-.25-.14-.25-.13-.25-.14-.24-.15-.22-.17-.24-.16-.23-.16-.22-.19-.22-.18-.22-.2-.22-.19-.2-.21-.21-.2-.18-.23-.2-.22a10.21 10.21 0 0 1-.52-.72l-.14-.25-.16-.25-.14-.26c-.04-.09-.1-.17-.13-.26l-.12-.28a5.77 5.77 0 0 1-.1-.27c-.04-.1-.06-.2-.1-.28l-.08-.28-.08-.29-.08-.28-.07-.29-.05-.29-.05-.3c-.01-.09 0-.19-.02-.29l-.03-.3-.03-.29-.01-.29.01-.3v-.59c0-.1.03-.19.04-.29 0-.1 0-.2.02-.3l.04-.28.06-.3.02-.14.03-.14.07-.29.07-.28.1-.28.1-.27.1-.28.14-.26.12-.27.13-.26.16-.25.13-.25.17-.22a4.53 4.53 0 0 1 .6-.6l.22-.17c.05.14 0 .15 0 .3v.08l-.01.12v.46l.01.12v.08l-.02.3v.37l.01.12v.38l.01.29v.37l-.01.12V20.44l.01.3v.86l-.01.36a.96.96 0 0 1-.1.34c-.06.02-.18.05-.4.08h-.01a.87.87 0 0 0-.3.11.75.75 0 0 0-.22.22 1.21 1.21 0 0 0-.18.6v.24a.93.93 0 0 0 .19.47c.06.06.13.1.22.15.07.04.16.06.26.09l.26.06.27.01.27.02.27.01h.27l.28.02H37.32l.08-.01.2-.01.3.02H38.46c.14 0 .15-.05.29-.01l.15.25c.06.08.1.16.17.23l.17.23.19.22c.06.08.11.16.18.23l.2.2c.06.07.14.12.21.19l.22.18.24.16.24.15.24.15.26.1c.09.05.17.09.26.12.09.04.17.09.26.12l.27.08.27.08.27.09.28.05.27.07.28.03.28.06c.1 0 .19.03.28.04l.28.04h.29l.28.02.28.02c.1 0 .19.02.28.03H46.5c.1 0 .19-.03.28-.04h.29l.28-.05.29-.01.28-.04.28-.07.28-.04.28-.05.28-.07.27-.07.28-.07.28-.07.26-.11.27-.1.27-.09.27-.1.25-.13.27-.1.26-.13.24-.15.25-.13.25-.15.23-.17.24-.16.23-.18.23-.17.2-.2a9.85 9.85 0 0 0 .41-.4l.2-.2.2-.22.18-.22c.06-.07.1-.16.15-.24l.18-.23.15-.25c.05-.08.07-.17.12-.26l.14-.26.07-.14.06-.13.1-.28.12-.27c.04-.1.08-.19.1-.28l.09-.29.08-.28.08-.3.06-.29.02-.3a3.42 3.42 0 0 0 0-.59l-.03-.3-.07-.28c-.02-.1-.06-.18-.1-.28l-.09-.28a5.1 5.1 0 0 0-.12-.26l-.14-.26a5.4 5.4 0 0 0-.15-.26c-.06-.08-.1-.16-.17-.24a5.28 5.28 0 0 0-.18-.23l-.2-.22-.2-.2-.22-.2c-.08-.07-.17-.11-.25-.16-.07-.06-.15-.12-.24-.17-.07-.04-.17-.07-.25-.12l-.26-.13-.27-.1a7.36 7.36 0 0 0-.26-.1l-.27-.1-.28-.06-.27-.07-.28-.08-.28-.05-.28-.06c-.1-.01-.19 0-.28-.02-.1 0-.2-.02-.29-.03l-.28-.03H49.81c-.1 0-.19.03-.28.05l-.3.04-.27.1-.27.1c-.1.03-.18.07-.27.12-.09.04-.17.1-.25.15l-.24.16-.24.17-.21.2a3.89 3.89 0 0 0-.4.44l-.17.23-.15.26-.13.27-.12.26-.1.28-.06.29a2.96 2.96 0 0 0-.05.88l.05.3.11.27.13.26.15.26c.06.08.14.14.22.2.07.07.15.13.23.17l.27.16a3.33 3.33 0 0 0 .57.21l.3.07.3.06.3.07a1.8 1.8 0 0 1 .78.47c.08.07.15.14.2.22.07.09.11.18.16.27.05.1.1.18.13.28.03.1.04.2.05.3.01.1.03.2.02.31 0 .1-.03.2-.06.3-.02.1-.07.19-.11.28a1.5 1.5 0 0 1-.35.48c-.07.07-.15.13-.24.19-.08.05-.18.08-.27.12-.09.04-.18.1-.28.13l-.29.05-.3.05-.29.04h-.3l-.3-.02c-.1 0-.19 0-.29-.03a3.04 3.04 0 0 1-.83-.27c-.1-.04-.18-.09-.26-.14-.09-.05-.16-.12-.24-.18l-.22-.2c-.07-.06-.15-.12-.22-.2l-.18-.23-.19-.23-.15-.26-.15-.25-.13-.27-.13-.27-.08-.28-.08-.29c-.03-.1-.06-.2-.07-.29l-.05-.3-.03-.29-.03-.3v-.3l.02-.28v-.29l.03-.28a7.96 7.96 0 0 1 .1-.56c.01-.1.04-.19.06-.28l.07-.28.09-.27.1-.27.12-.26.11-.26.15-.24.14-.25.14-.24c.05-.08.1-.16.17-.24l.17-.22.18-.22.19-.22.2-.2.19-.2.2-.2.23-.18.2-.2.23-.16.24-.16.24-.15.25-.14.26-.1.27-.1.27-.09.27-.08.28-.04.28-.04c.09-.02.18-.02.28-.03l.28-.02c.1 0 .19-.02.28-.03.1 0 .2.02.29.01h.56l.29-.02Zm32.57-1.3.29.02h.28l.28.04.28.03.28.05c.1.01.19.03.28.06l.27.07.27.1.26.1.26.13.25.13.22.17.21.19a2.66 2.66 0 0 1 .53.66l.14.24.1.27c.04.08.09.17.12.26l.07.27.06.28.07.28.04.28.05.28a8.64 8.64 0 0 1 .07.84V17.6l-.02.28V18.44l-.02.28.01.29v.28c-.01.1-.04.2-.04.28v.29l-.01.28V21.01c0 .11 0 .21.02.31 0 .11.03.21.05.3.01.11.04.21.06.3.03.11.04.22.07.3l.14.28c.05.1.1.2.17.3l.2.25.24.23c.1.08.16.15.21.22.09.1.13.19.13.27 0 .12-.03.22-.1.3a.63.63 0 0 1-.28.16 1.53 1.53 0 0 1-.41.07h-.5l-.27-.02-.27-.02-.28-.05-.26-.07-.27-.08-.24-.12-.25-.13-.22-.16-.19-.2-.19-.2a2 2 0 0 1-.13-.24l-.25.15-.25.16-.26.15-.26.13-.27.14-.27.12-.27.12c-.1.04-.2.05-.29.08l-.28.1-.29.06a5.2 5.2 0 0 1-.89.1l-.3-.03a3.95 3.95 0 0 1-.58-.08l-.3-.06-.27-.1c-.1-.04-.18-.1-.27-.14-.09-.04-.17-.1-.25-.15-.09-.06-.17-.1-.25-.17l-.22-.2c-.08-.07-.16-.13-.22-.2a.8.8 0 0 1-.06-.08l-.11-.17a2.85 2.85 0 0 1-.17-.24c-.05-.09-.11-.17-.15-.26l-.1-.28-.09-.29-.05-.3c-.02-.09-.02-.19-.02-.29l-.01-.3-.02-.3c0-.1.03-.19.05-.29a4.42 4.42 0 0 1 .1-.58l.08-.28c.04-.1.1-.18.13-.27a2.8 2.8 0 0 1 .5-.72c.06-.08.14-.14.21-.2l.23-.18.25-.17.25-.14.27-.12.27-.1.27-.1.27-.05.27-.07.28-.05c.08-.02.18-.02.27-.03l.28-.04c.09-.01.18 0 .28-.02.09 0 .18-.03.28-.04h.27l.28-.03h.28l.28-.02h.56l.28-.02h.28c.05-.12 0-.13 0-.27v-.81l-.01-.28c0-.13.02-.13.02-.27l-.01-.28-.04-.28c-.01-.1-.02-.19-.05-.28-.02-.1-.07-.17-.1-.26a1.8 1.8 0 0 0-.28-.48 1.42 1.42 0 0 0-.43-.35l-.26-.1a2.25 2.25 0 0 0-.27-.07l-.28-.05h-.56l-.28.01-.29.05c-.1.02-.2.06-.27.1-.1.05-.15.12-.15.21 0 .05.03.14.13.26l.18.23a1.25 1.25 0 0 1 .25.43c.03.08.05.17.06.25.01.08.03.17.03.26 0 .1-.02.2-.03.28a1.69 1.69 0 0 1-.17.55 1.1 1.1 0 0 1-.38.41l-.25.14-.28.07-.28.04-.28.02h-.27l-.27-.07c-.08-.03-.17-.05-.25-.09-.08-.04-.15-.1-.23-.15a1.65 1.65 0 0 1-.53-.59l-.1-.25c-.02-.09-.06-.17-.07-.26V14.7l.07-.3.09-.3c.03-.09.09-.17.14-.26a2.57 2.57 0 0 1 .36-.5l.2-.22.24-.2c.07-.06.16-.11.25-.17l.23-.15a4.45 4.45 0 0 1 .49-.25l.26-.08.26-.1.27-.06.26-.06.27-.03.28-.02.27-.02h.28Zm38.95-.02h.3l.29.01.27.05.27.07.27.08.26.11.26.1.26.13.27.12.26.12c.14.05.23.1.27.1.1 0 .23-.04.4-.1l.2-.06c.09-.02.16-.04.22-.04.1 0 .17.05.22.12.04.05.05.13.05.24l.02.29.05.28.05.28.06.28.07.28.08.27.05.28.05.28.05.27.01.29c0 .14-.04.24-.12.31a.52.52 0 0 1-.33.09c-.07 0-.15-.07-.25-.2-.06-.07-.14-.15-.21-.26l-.16-.3-.11-.24-.15-.23c-.04-.09-.1-.16-.14-.23l-.14-.24-.18-.2-.18-.21-.22-.18-.23-.18-.25-.15a2.5 2.5 0 0 0-.27-.11l-.29-.06a2.77 2.77 0 0 0-.57-.06c-.1 0-.19-.01-.28 0-.09 0-.18 0-.27.02a2.82 2.82 0 0 0-.53.13c-.09.03-.18.06-.25.1-.08.06-.13.14-.19.2a.74.74 0 0 0-.14.24.93.93 0 0 0-.03.28l.01.3c.02.1.05.19.09.28.03.1.09.17.14.26.04.09.1.17.15.25l.19.23c.06.07.14.13.22.2l.23.19c.08.05.15.12.24.17l.25.16.26.13.25.15.25.15.25.15.26.14.25.16.25.15.26.13.25.16.25.14.26.14c.08.06.16.11.23.18a4.37 4.37 0 0 1 .41.4c.07.08.1.17.17.24l.18.23.14.25.13.26.09.28.07.28.06.28.04.3v.28l-.02.28c0 .1 0 .19-.02.28-.01.1-.04.18-.07.27l-.08.26c-.03.1-.05.19-.09.27-.03.08-.08.16-.13.24l-.16.23-.17.22-.2.2-.2.18c-.07.07-.15.12-.23.17l-.25.16-.24.14-.26.14a4.1 4.1 0 0 1-1.4.32h-.28l-.27-.01-.28-.03-.26-.04-.27-.06-.26-.09-.26-.07-.27-.06c-.08-.02-.16-.07-.25-.1l-.26-.06-.26-.07-.26-.06-.26-.05-.27-.03-.26-.02c-.07 0-.15.04-.23.08-.07.02-.15.05-.22.1-.08.05-.15.1-.22.12a.6.6 0 0 1-.24.05.66.66 0 0 1-.26-.05.46.46 0 0 1-.2-.17.69.69 0 0 1-.1-.25 1.37 1.37 0 0 1-.03-.27v-.56l.01-.28v-.28l-.01-.28v-.28l.01-.28v-.28l-.01-.28v-.08l.01-.12v-.08l-.01-.28c0-.1.03-.17.06-.24a.32.32 0 0 1 .15-.18.57.57 0 0 1 .24-.04c.08 0 .15.04.22.13.04.05.09.13.13.22l.1.24.09.25.1.27c.02.1.06.19.09.27l.08.28.1.27c.04.07.09.15.16.21a1.92 1.92 0 0 0 .42.32l.24.11.25.1.26.1.27.08.26.1.28.04h.28l.29-.01c.1 0 .2 0 .3-.02l.28-.08.27-.1.27-.12.24-.16a1.42 1.42 0 0 0 .38-.41 1.01 1.01 0 0 0 .13-.55 1.48 1.48 0 0 0-.1-.54l-.13-.25c-.04-.08-.1-.15-.16-.22a3.27 3.27 0 0 0-.37-.41l-.2-.19-.21-.18c-.07-.06-.16-.1-.24-.15l-.23-.17-.24-.17-.23-.17-.24-.16-.24-.16-.24-.18-.23-.17-.24-.17-.25-.15-.23-.18-.24-.17-.2-.17-.2-.2-.2-.2-.17-.22c-.06-.07-.1-.16-.15-.23l-.15-.24-.1-.25c-.05-.09-.09-.17-.12-.26s-.03-.18-.05-.27l-.05-.28-.02-.27.02-.3.04-.3.07-.3.12-.27c.05-.09.08-.18.14-.27a2.42 2.42 0 0 1 .87-.8c.09-.06.18-.1.27-.14l.28-.12.29-.1.29-.07.3-.07.3-.05.3-.03.3-.01Zm-11.11-.2h.59l.28.03.3.03.29.07.28.06c.1.03.2.06.28.1.1.03.2.06.28.1.1.04.17.1.26.14l.26.14c.08.06.17.1.25.17.08.05.16.11.23.18l.23.2.22.19.2.22.18.22.17.22.17.23.15.24a7.77 7.77 0 0 1 .26.5c.04.1.1.17.13.26l.1.27.08.27.07.27.05.29.05.27.04.29a6.62 6.62 0 0 1 .02.57c0 .12-.02.23-.05.3a.42.42 0 0 1-.24.21c-.05.02-.15.06-.28.08-.08.01-.18 0-.3.02l-.28.03-.3.02h-.29c-.1 0-.19.03-.3.03h-.58l-.29.02h-.59l-.29.02H112.73l-.28.01h-1.75l-.27.01-.28-.02-.28.01-.28-.01-.27-.01v.28c0 .1.02.2.03.29 0 .1.03.19.04.28l.03.29.07.28a5.16 5.16 0 0 0 .28.8l.13.26.14.25.18.22.2.2.2.2.24.17c.08.05.17.08.25.12l.26.14.27.07.27.09.28.05.28.03h.29c.09.01.18.03.28.03a3.3 3.3 0 0 0 .82-.1l.27-.07c.09-.02.17-.06.26-.09l.26-.1.25-.12.26-.11.24-.14c.08-.04.15-.1.23-.16l.24-.14.23-.16.23-.17.2-.18.22-.18.24-.2.07-.06.17-.14c.11-.1.1-.12.24-.19.15 0 .22.09.22.28 0 .1-.03.21-.08.34l-.14.26-.13.26-.15.25-.18.23c-.06.07-.1.16-.17.24l-.19.22-.17.23-.2.22-.2.22-.2.2-.21.22c-.08.08-.15.15-.22.2l-.23.2-.24.16c-.08.06-.17.1-.26.14a3.76 3.76 0 0 1-.53.24c-.1.04-.18.08-.28.1l-.28.08-.29.06-.29.06c-.1 0-.19 0-.29.02l-.3.02-.28.01H111.29c-.09 0-.19-.03-.28-.04l-.29-.05c-.1-.02-.2-.03-.28-.06l-.29-.08-.27-.09c-.1-.03-.2-.05-.28-.1-.09-.03-.18-.08-.26-.12l-.26-.15-.25-.15-.23-.17a4.16 4.16 0 0 1-.45-.38l-.22-.2-.21-.2-.18-.22a6.4 6.4 0 0 1-.17-.23l-.16-.23-.16-.23-.15-.24c-.05-.08-.08-.17-.12-.25l-.13-.25-.1-.27a5.84 5.84 0 0 1-.1-.26l-.08-.27-.08-.27-.06-.28-.05-.28-.04-.28v-.28c-.01-.1-.03-.18-.03-.28l-.01-.28.01-.3v-.28l.04-.3c0-.09.04-.18.06-.28l.05-.28.07-.28.07-.29.1-.27.1-.27.13-.26.13-.25a5.1 5.1 0 0 1 .3-.5c.06-.08.1-.17.16-.24l.2-.22.18-.22.19-.22.2-.2.23-.18.21-.2.25-.15c.07-.05.14-.13.22-.18l.26-.13.25-.14.26-.12.26-.11.27-.1.28-.08c.09-.03.18-.04.28-.06.09-.02.18-.05.28-.06l.28-.05.28-.02.29-.03Zm-87.2.3c.15 0 .23.06.25.17V14.6l.01.29-.02.3.01.29v.59l.01.29v.29l-.01.3.01.29v.29l-.01.3v.3l.02.3v1.5l.01.3v.6l.01.3v.6a1.58 1.58 0 0 0 .14.61c.05.1.12.17.2.23.09.06.18.12.29.15.09.03.17.06.24.1.09.04.15.1.21.16.06.07.1.14.13.23.03.07.05.16.05.25 0 .1-.02.19-.06.26a.35.35 0 0 1-.2.16.71.71 0 0 1-.25.04H24.14l-.28-.02h-.08l-.12.01H23.02l-.29-.01h-1.12l-.28-.02c-.1 0-.2 0-.26-.04a.37.37 0 0 1-.19-.2c-.03-.06-.02-.16-.02-.26s.01-.2.08-.3a.83.83 0 0 1 .23-.21c.07-.05.17-.1.28-.14.1-.04.18-.09.26-.16a.92.92 0 0 0 .18-.26l.1-.3a2.29 2.29 0 0 0 .06-.63V20.8l.01-.3-.01-.29v-.3c0-.14.02-.14.02-.29v-.29l-.02-.3v-.58c0-.14.02-.14.02-.3l-.01-.28v-1.77l-.01-.28a.92.92 0 0 0-.05-.31.71.71 0 0 0-.15-.28.9.9 0 0 0-.26-.18 1.46 1.46 0 0 0-.3-.1l-.24-.08c-.1-.03-.18-.06-.25-.1a.66.66 0 0 1-.19-.19.43.43 0 0 1-.07-.25c0-.07.05-.16.17-.25l.25-.13.24-.13.25-.12.24-.13.25-.12c.07-.04.15-.1.24-.14l.24-.12.26-.14.26-.14.26-.13.26-.13c.08-.05.17-.08.26-.12l.27-.13.26-.13.26-.13c.1-.04.19-.07.28-.07Zm36.46-7.43h.09l.11.02h.1l.28-.01.3.01h.08l.12-.01h.08l.3.01h1.82l.12-.01h.38l.29.01H65.6c.1 0 .18.03.23.1a.5.5 0 0 1 .11.23c.02.08.02.16.02.26 0 .07-.03.15-.1.23l-.17.2-.2.15-.24.19-.26.16-.21.16-.2.18a2.24 2.24 0 0 0-.47.65c-.03.09-.04.18-.05.27a1.5 1.5 0 0 0-.03.27v.59l-.02.3.01.3v.3l-.01.3v.08l.01.12v.98l.01.3V11.94l-.01.12V13.34c0 .15-.1.18.01.29.1.1.13 0 .27 0h.65l.12.01H65.36l.09-.01H66.86l.28.01h1.01v-.01c.14-.04.15-.01.29 0l.05.01h.07l.28-.01H69.27l.28.01h-.05l.19-.01h.56l.28.01h.65l.2-.01h.37l.2.01h.28l.28-.01.28.01c.15 0 .19.1.29 0 .1-.1-.01-.15-.01-.29 0-.14.02-.14.02-.29v-.28c0-.14-.02-.14-.02-.29v-.28c0-.14.02-.14.02-.29l-.02-.28V11.27l.01-.12v-1.6l-.01-.11v-.09l.02-.28V8.4l-.01-.2a2.17 2.17 0 0 0-.18-.84l-.11-.26-.15-.25c-.06-.08-.13-.14-.2-.21l-.19-.22-.22-.18-.23-.2-.22-.2-.22-.2-.21-.21c-.1-.12-.15-.2-.15-.25 0-.15 0-.26.04-.35.05-.13.14-.19.26-.19h.29l.3-.01H73.33l.29.01.29-.01h.87l.29.01h.58c.14 0 .14-.02.29-.02l.29.01h.29l.09.01h.78l.3-.01h.2l.08.01c.1 0 .17.03.23.1.05.05.09.13.1.23.02.08.05.16.05.26 0 .07-.05.15-.13.25-.05.06-.1.13-.19.2l-.22.16-.22.16-.23.15c-.08.05-.14.12-.2.17l-.22.17-.18.2-.15.23c-.04.08-.1.15-.13.23l-.06.27a1.5 1.5 0 0 0-.02.35v.12L76.4 8V10l.01.29v1.16l-.01.28.01.29V12.69l-.01.2v.3l.01.28-.02.3V14.33a1 1 0 0 0 0 .08l.02.12v.09l-.01.29V16.07l.01.29c0 .14-.02.14-.02.29l.01.29V17.8l.01.29v.72a24.4 24.4 0 0 0 0 .23V20.7c0 .1.01.2.03.29.02.1.03.19.07.28.03.1.09.17.14.26.05.08.09.17.15.25l.2.2c.07.08.13.16.2.22.07.07.15.12.23.18l.23.17.23.19c.08.06.14.14.2.2.09.08.17.13.22.2.1.1.16.19.16.24 0 .14-.03.25-.07.33-.05.12-.13.19-.25.19H76.9l-.12-.01h-.08l-.3.01h-.14a15.92 15.92 0 0 1-.23 0H74.95l-.08-.01h-.2l-.3.01H74l-.12-.01h-2.12l-.29.01c-.13 0-.22-.07-.27-.2a.86.86 0 0 1-.07-.35c0-.08.04-.17.11-.27.05-.06.13-.12.22-.2l.24-.16c.07-.05.14-.12.23-.17l.24-.15.2-.18.2-.2.17-.22c.05-.08.08-.16.12-.25.04-.08.1-.16.12-.25l.06-.3c.02-.12.05-.22.05-.3v-.86l-.02-.3v-.28c0-.14.02-.14.02-.29v-.14a15.7 15.7 0 0 1 0-.23l-.01-.11V16.58l-.01-.2V15.81c0-.15.1-.19 0-.3-.1-.1-.13.01-.28.01h-3.02c-.05.02-.08.01-.1 0H67.83c-.14 0-.16.06-.29 0h.01-.14l-.28-.01-.28.01-.29-.01H65.64l-.2.01H64.6l-.29-.01c-.14 0-.17-.09-.27.01-.1.1 0 .14 0 .29V16.67l-.01.29v.57l-.01.29.02.28v.38l-.01.11v.09l.01.29a1 1 0 0 1 0 .08l-.02.12v.08c0 .15.02.15.02.29 0 .14-.02.14-.02.29V20.69a1.3 1.3 0 0 0 .13.55c.03.1.07.18.12.27l.15.25.2.22.2.2.24.19.22.19.22.18c.09.07.17.12.23.18l.21.2c.1.11.16.2.16.25a.9.9 0 0 1-.06.33.26.26 0 0 1-.26.18h-.09l-.12.01h-.46l-.12-.01H64.24l-.12.01h-1.04c-.07-.01-.1-.02-.21-.02h-.29l-.3.02h-.08l-.12-.01H61.91l-.12.01h-.29l-.08-.01H60.25l-.29.01H59.38a.33.33 0 0 1-.22-.09.41.41 0 0 1-.11-.21 1.08 1.08 0 0 1-.02-.25c0-.08 0-.17.06-.26a1.72 1.72 0 0 1 .4-.34l.11-.08.11-.07c.08-.06.17-.1.24-.14l.21-.17.23-.16.17-.24.14-.26c.05-.1.1-.18.12-.28l.1-.28.02-.3.02-.07v-.58l.01-.3-.02-.28V18.57l.01-.12V17.7l.01-.12v-.09c0-.14-.02-.14-.02-.29 0-.14.02-.14.02-.29l-.01-.29v-.29l.01-.29v-.08l-.01-.12V12.56l.01-.29v-.08l-.02-.12v-.09c0-.14.02-.14.02-.29v-.37l-.01-.12V8.2c0-.1 0-.2-.02-.3-.01-.1-.02-.2-.05-.3a2.3 2.3 0 0 0-.23-.55l-.18-.24a2.92 2.92 0 0 0-.37-.4c-.06-.06-.1-.13-.17-.18l-.24-.18-.23-.2-.21-.2c-.09-.08-.15-.16-.2-.23-.1-.11-.16-.2-.16-.24 0-.15.01-.27.05-.35.05-.13.14-.2.26-.2H59.88l.12.01h.09c.14 0 .14-.02.29-.02l.29.01h.58ZM38.88 6.38c.1 0 .19.06.23.17.04.07.05.17.06.3V7.41c0 .15-.02.15-.02.29 0 .14.02.14.02.29v.58c0 .14-.02.14-.02.29l.02.28-.01.3.01.28v1.45l-.01.28v3.38l-.01.09v.29l.01.08v2.52a1 1 0 0 0 0 .08v.12l.01.08V18.68l-.01.29v2.89c0 .1.01.2.03.28a.7.7 0 0 0 .3.46.9.9 0 0 0 .25.1 1 1 0 0 1 .29.15c.1.07.16.14.21.24.05.09.09.19.09.3a.6.6 0 0 1-.1.35c-.06.1-.16.13-.3.13l-.3.01h-.08l-.12.01H39.26l-.12-.01h-.08l-.3.01h-.66l-.11-.01H36.46a13.58 13.58 0 0 1-.63-.01c-.1 0-.21 0-.3-.02a2.32 2.32 0 0 1-.31-.05c-.15-.04-.23-.11-.25-.18a1.06 1.06 0 0 1-.03-.3c0-.13.02-.22.06-.3.05-.09.13-.13.24-.15l.3-.07.1-.02a.74.74 0 0 0 .2-.06.65.65 0 0 0 .17-.25c.03-.08.07-.17.09-.28.02-.08.02-.18.03-.3l.02-.29V19.55l-.01-.3c0-.14.02-.14.02-.3l-.01-.28V17.78l-.01-.29V16.32l.02-.3v-.09l-.01-.12v-.17l-.01-.2v-.1l.01-.11v-.09l-.01-.3V14.18l.02-.12V13.38l-.02-.3v-.59l.01-.29v-2.06a.73.73 0 0 0-.16-.5.67.67 0 0 0-.4-.29c-.08-.03-.17-.04-.26-.05-.1-.01-.2-.04-.28-.06-.1-.03-.19-.07-.26-.11a.6.6 0 0 1-.2-.2.53.53 0 0 1-.11-.27.19.19 0 0 1 .03-.06l.05-.05.25-.14c.08-.04.15-.1.25-.14.07-.04.15-.1.24-.14l.26-.12c.07-.05.16-.08.25-.13l.25-.14c.08-.04.15-.1.24-.14l.26-.12c.08-.04.17-.07.25-.12l.28-.13c.1-.05.17-.11.26-.15l.27-.14.28-.13.24-.11.25-.11.24-.12c.14-.06.22-.1.25-.1Zm-23.3-1.75a1 1 0 0 1 .1 0l.11.02h.81a32.38 32.38 0 0 0 .23 0H18.2l.3-.01h.58c.09 0 .17.04.23.1.05.06.1.14.11.24.02.07.02.16.02.26a.4.4 0 0 1-.11.25c-.05.06-.13.11-.21.19l-.2.18-.24.15-.21.16-.22.16c-.07.06-.15.1-.21.17-.07.06-.12.14-.17.21l-.16.22c-.04.08-.1.15-.13.23a1.5 1.5 0 0 0-.07.27l-.01.27V8.57l-.01.28V9.73l.01.28c0 .14-.02.14-.02.29 0 .14.02.14.02.29v.08l-.01.12v.37l.01.3-.01.28V13.47l.01.3-.02.28c0 .15.02.15.02.29v.86l-.01.3V16.06l.01.29-.01.29.01.29v.86c0 .15-.02.15-.02.29v.09l.01.11V20.31l.01.09v.29a1.46 1.46 0 0 0 .1.57l.13.26.16.25a3 3 0 0 0 .19.22c.06.07.15.12.22.19l.22.19.23.17.23.19.2.2c.09.08.17.13.22.2.1.1.15.19.15.24 0 .14 0 .25-.04.34a.27.27 0 0 1-.27.17H18.66l-.3.01H17.42l-.12-.01h-.37l-.3.01H15.39l-.12-.01H14.01l-.29.01h-.37l-.12-.01H12.56c-.13 0-.21-.06-.27-.19a.87.87 0 0 1-.06-.35c0-.08.02-.17.1-.27.05-.06.13-.12.22-.2l.23-.17.24-.16a2.4 2.4 0 0 0 .44-.34c.07-.06.15-.11.2-.18a2.11 2.11 0 0 0 .3-.47l.1-.26.07-.3.03-.3c0-.15.02-.15.02-.29v-.09l-.01-.11v-.95l-.01-.29V18.4l.01-.29-.01-.28v-.09l.01-.12V16.95l-.01-.28v-.86c0-.15.1-.19 0-.29-.1-.1-.13 0-.28 0h-.56l-.29-.01h-.56l-.28.02H11.82l-.11-.01h-1.22l-.28-.01-.29.01-.28.01-.28-.01H8.51l-.28-.01H7l-.2.01-.28-.01H5.4c-.14 0-.18-.09-.28.01-.1.1 0 .14 0 .29v1.06l.01.09v.28l-.01.29V18.48l.01.11v.38l-.02.28v1.44a1.54 1.54 0 0 0 .13.57c.03.08.07.18.12.26.05.08.1.16.17.24.05.08.12.15.19.22l.21.2.22.2.22.18.23.17.22.2.2.2c.1.11.15.19.15.24 0 .14-.02.25-.05.33-.05.12-.13.2-.25.2-.15 0-.15-.03-.3-.03H6.5l-.12.01H3.58l-.11.01H2.5l-.3-.02c-.14 0-.14.02-.29.02-.14 0-.14-.02-.29-.02h-.29l-.29.01-.29.01H.47a.35.35 0 0 1-.23-.08.44.44 0 0 1-.11-.22 1.13 1.13 0 0 1-.02-.25c0-.08.02-.17.07-.25.05-.06.1-.13.19-.19l.2-.16.24-.14.22-.15.22-.17c.1-.06.17-.11.22-.16.07-.08.13-.17.18-.26l.17-.26A2.39 2.39 0 0 0 2 21l.04-.31v-.3l.02-.28v-.09l-.02-.12v-.08l.02-.3-.02-.28v-.97l.01-.1V16.9l-.01-.29v-.08l.02-.12V15.67l-.02-.2.01-.3V14.88l.01-.29-.01-.29V14.01l-.01-.29V13.43l.01-.29V11.32l-.01-.12V9.29l.01-.12V8.2c0-.1 0-.2-.02-.29 0-.1-.02-.19-.04-.28l-.1-.27a2.42 2.42 0 0 0-.13-.26l-.15-.24a2.67 2.67 0 0 0-.18-.23c-.06-.07-.12-.14-.2-.2l-.2-.2-.24-.18a13.7 13.7 0 0 1-.65-.62C.04 5.33 0 5.24 0 5.2c0-.15.02-.26.05-.34.05-.14.13-.2.25-.2H.97l.12-.01h.96c.14 0 .14.02.29.02.14 0 .14-.02.29-.02H4.38l.28.02H4.95l.3-.01H6.7c.1 0 .17.04.23.1.05.06.08.13.1.23.02.08.03.16.03.26 0 .07-.03.16-.1.25l-.2.2-.23.16-.2.17-.24.15a3.43 3.43 0 0 0-.6.54 1.51 1.51 0 0 0-.27.46l-.08.26-.02.27v4.75l.01.3v.59c0 .15-.1.19 0 .3.1.1.13-.01.27-.01H6.82l.28.02H7.67l.28-.01.28-.01.28.01h.29l.28-.01h.28l.29.01.28-.01.28.02.28-.02H13.6l.28.01c.15 0 .18.09.28-.01.1-.1.02-.14.02-.28v-.29l-.01-.08-.01-.12V12.12l.01-.2V10.98l-.01-.11v-.09a1 1 0 0 1 0-.08l.01-.12V8.21a.7.7 0 0 0 0-.1l-.03-.18a2.14 2.14 0 0 0-.41-1.06l-.18-.24-.21-.2-.21-.2-.24-.17-.23-.2-.22-.2-.2-.22c-.1-.12-.16-.2-.16-.25 0-.15.03-.26.06-.34.05-.14.13-.2.25-.2H13.93l.12-.01H14.72c.14 0 .14.02.29.02.14 0 .14-.02.29-.02H15.59ZM31.9 6.38c.1 0 .18.06.23.17a.9.9 0 0 1 .06.38v.2l-.01.3.01.28v.58a1 1 0 0 1 0 .08l-.01.12v.09l.01.29V10.6l-.01.29V11.18l.01.28-.01.3v2.68l.01.11v1.53l-.01.3v1.29l.01.15v.28l-.01.3v.57l.01.29v1.15l-.01.3.01.28v.58c0 .14-.02.14-.02.29 0 .1.03.19.05.28.02.1.06.18.1.25.06.08.11.15.2.2.06.05.14.1.24.13.11.04.22.06.3.12.1.06.15.15.2.25.05.09.07.19.07.3 0 .16-.01.28-.07.36-.06.1-.17.13-.32.13h-2.88l-.3.01-.28-.01-.31-.01-.31-.01-.31-.01a2.18 2.18 0 0 1-.31-.06c-.15-.04-.24-.1-.26-.16-.02-.06-.02-.17-.02-.32a.6.6 0 0 1 .06-.29.34.34 0 0 1 .24-.17l.3-.04a.94.94 0 0 0 .3-.1.64.64 0 0 0 .18-.23c.04-.08.07-.18.09-.29a2.66 2.66 0 0 0 .04-.67v-1.98l-.01-.29.01-.3v-.87l-.01-.3v-2.06c0-.14.02-.14.02-.29v-.08l-.01-.12V13.59l-.01-.12v-.1l.01-.28V12.88l-.01-.09.02-.3c0-.14-.02-.14-.02-.29v-.38l.01-.12V11.03l-.01-.3c0-.14.02-.14.02-.29l-.01-.3c0-.09-.01-.17-.03-.25a.74.74 0 0 0-.3-.43.96.96 0 0 0-.23-.12 1.44 1.44 0 0 0-.26-.06c-.1-.01-.2-.01-.28-.04l-.26-.1a.64.64 0 0 1-.22-.2.54.54 0 0 1-.09-.27c.03-.07.03-.07.08-.12l.25-.14.25-.15.25-.12.25-.14.25-.13.25-.12.25-.14.25-.12c.08-.04.17-.1.25-.13l.26-.13.26-.12c.09-.05.17-.1.25-.13l.26-.13.26-.12.25-.13c.1-.05.2-.08.27-.1.15-.07.23-.12.26-.12ZM84.94 18.4l-.3.02-.3.03c-.1.02-.2.06-.29.09l-.3.07-.26.13-.27.14a3.3 3.3 0 0 0-.25.18l-.24.18-.2.21c-.08.08-.13.17-.18.25-.06.09-.12.17-.16.26a1.99 1.99 0 0 0-.16.58l-.03.3c0 .1.02.19.03.28l.04.27.1.26c.03.08.06.17.11.24l.17.22c.07.07.14.11.22.17l.23.13c.08.04.15.09.24.11l.27.04.26.02h.3a3.37 3.37 0 0 0 .86-.2c.1-.04.18-.1.26-.15l.23-.18.2-.22c.06-.08.12-.16.16-.25l.1-.28.06-.3c.02-.1.05-.19.06-.3v-1.11l-.01-.14v-.13l.02-.28c0-.13-.02-.13-.02-.27 0-.13.05-.14 0-.27l-.3-.04c-.11-.02-.22-.04-.33-.04l-.32-.02ZM67.2 16c.14-.03.14 0 .28 0 .14.02.14.01.27.01l.28-.01H69.12c.13 0 .13.02.27.02s.14-.05.27 0l-.08.26a7.86 7.86 0 0 1-.33.79l-.14.25-.13.25-.15.24-.16.24-.17.22c-.05.08-.1.17-.16.24l-.18.22-.19.21-.2.21-.2.2-.22.19-.23.17-.23.17-.23.17-.26.13-.25.14-.26.12-.26.1-.27.12-.28.07-.27.07-.28.07c0-.07-.03-.12-.03-.18l.01-.3v-.88l.01-.3v-1.17c0-.15-.05-.16-.01-.3.1-.02.19-.05.28-.09l.28-.1.27-.1.26-.16.26-.13.25-.16.23-.18.12-.1.11-.1.22-.2.22-.19.2-.23Zm44.94-2.49c-.1 0-.19.02-.28.03l-.27.03-.27.08-.25.1-.24.13-.23.15c-.07.06-.15.1-.22.17a3.66 3.66 0 0 0-.39.39l-.17.2c-.06.08-.09.17-.13.25l-.15.23a2.44 2.44 0 0 0-.16.53c-.01.09 0 .18-.02.27l-.02.28c0 .07-.03.08.01.14l.3.06.3.04.3.03H111.18l.3.01.3-.01h.59l.3-.01h.29l.3-.03h.29l.3-.01.29-.02.3-.03.29-.01.3-.02-.04-.3-.03-.28-.07-.29-.1-.28c-.02-.1-.04-.19-.08-.28-.03-.09-.08-.17-.13-.26a2.5 2.5 0 0 0-.54-.68l-.23-.18-.26-.13-.26-.12-.28-.09-.29-.03-.28-.03-.3-.03ZM46 0h.29l.29.02h.28l.3.02h.28l.29.04.29.03c.1.01.2.01.29.03.1 0 .19.03.28.04l.29.05.28.06.28.08c.1.02.2.03.28.06l.28.1c.09.03.17.08.26.12l.27.1.26.14.23.17.23.17.21.2.2.22.16.25c.05.08.08.17.12.26l.1.27c.03.1.08.18.1.28l.06.29.02.3c.01.09 0 .18 0 .28v.3a4.13 4.13 0 0 1-.06.56c-.02.1-.06.18-.1.27-.03.1-.05.19-.1.27-.04.08-.1.16-.16.24-.06.07-.1.15-.15.22-.05.08-.12.14-.18.2l-.18.19c-.07.05-.14.11-.22.15-.08.03-.17.05-.26.06-.08.02-.17.01-.27.01h-.27c-.1 0-.2 0-.28-.02-.1-.01-.18-.04-.27-.06a1.9 1.9 0 0 1-.26-.1l-.26-.1-.23-.16c-.1-.07-.17-.14-.24-.2a1.4 1.4 0 0 1-.36-.49c-.03-.09-.03-.2-.04-.3l-.02-.3c0-.1 0-.2.02-.3a2.05 2.05 0 0 1 .2-.58l.13-.26a3.53 3.53 0 0 1 .35-.5l.21-.22-.27-.1a8.75 8.75 0 0 0-.27-.1l-.28-.09c-.09-.02-.18-.06-.27-.1l-.28-.06-.27-.08c-.1-.03-.2-.03-.29-.04l-.28-.08-.28-.05h-.29l-.28-.03h-.28c-.1 0-.19.02-.28.03l-.28.02-.27.04c-.1.01-.18.04-.27.06l-.27.05-.28.06-.26.08-.26.1-.26.1-.25.12-.26.11-.24.15-.22.17-.22.18a3 3 0 0 0-.55.68l-.14.25-.12.26-.1.28-.09.27-.08.28-.04.3-.05.28v.3c-.01.1-.03.19-.03.29l.02.29.01.14.02.15.04.29.08.28.1.27.08.28.14.26.14.26.18.23.17.23.2.22.23.2.23.19c.08.06.18.1.26.15l.26.15.28.11.27.12c.1.04.19.08.28.1l.29.1.28.08c.07.03.17.07.29.1l.29.07a5.28 5.28 0 0 0 .59.1l.3.03H46.98l.29.03.29.02a2.46 2.46 0 0 1 .56.17c.09.05.16.12.2.2.06.08.07.17.07.28 0 .1 0 .18-.04.27a.7.7 0 0 1-.16.22c-.06.05-.14.1-.23.14-.07.04-.14.1-.24.13l-.25.08-.27.05a5.8 5.8 0 0 1-.26.04l-.27.03-.28.03H45.82l-.29.02-.28-.01h-.28l-.29.01-.28-.01-.29.01h-.29c-.1 0-.19.03-.28.04-.1 0-.2 0-.29.02h-.14l-.14.02-.29.05-.28.06-.28.08-.28.05c-.09.03-.17.08-.26.12-.1.03-.2.04-.28.08l-.26.12-.26.14-.25.13-.24.16-.23.18-.2.2-.22.2c-.04-.15 0-.15 0-.3v-.6l.01-.1v-.81c0-.15-.05-.16-.01-.3l.26-.15.25-.16.26-.13.26-.15.26-.13-.21-.18-.22-.17-.22-.18-.21-.19-.22-.17-.2-.2c-.03-.13 0-.13 0-.27v-.48l-.01-.09v-.76l.01-.08-.02-.28v-.2l.01-.08V6.94l.02-.28h-.03c-.01-.11-.05-.2-.08-.28a.81.81 0 0 0-.15-.25.67.67 0 0 0-.24-.17.72.72 0 0 0-.28-.06c-.05 0-.1 0-.26.06l-.25.1-.24.11-.25.1c-.04-.01.01-.03.01-.08v-.3l.02-.28.04-.3.06-.28.07-.29.1-.28.11-.27.13-.26.12-.27.17-.24.16-.24.19-.23.19-.23.19-.22c.06-.07.15-.12.22-.19l.22-.2.22-.2c.08-.05.15-.13.22-.19l.25-.17.12-.08.13-.08a8.3 8.3 0 0 1 .5-.3l.27-.13.27-.14.27-.1a9.08 9.08 0 0 1 .55-.21c.1-.03.19-.08.28-.1l.28-.09.3-.07.26-.05.27-.06c.1-.02.19-.01.28-.03l.27-.03c.1 0 .19-.02.28-.03l.28-.02.27-.02h.28l.28-.01Zm20.02 6.02.27.11.27.13.26.15.25.16.25.16.23.2a8 8 0 0 1 .23.18c.08.06.16.12.23.2l.23.2.22.2.19.23c.07.07.14.13.2.21.07.07.12.16.17.23l.18.23.14.25.14.25.1.27.1.26.1.27a7.1 7.1 0 0 1 .14.56c.02.1.05.18.06.28l.03.29c.02.09.02.18.03.28l.04.29c.01.09.03.18.03.28l.02.29V13.16c-.13.06-.14 0-.28 0h-.28l-.28-.01H68.94l-.11-.01H68.47c-.14 0-.15.06-.28.02V12.26l.01-.3v-.29c0-.1-.02-.2-.03-.28-.01-.1-.01-.2-.03-.29l-.04-.28c-.02-.1-.06-.19-.09-.28l-.08-.27a4.06 4.06 0 0 0-.1-.27l-.13-.25-.13-.25-.14-.24a3.15 3.15 0 0 0-.34-.44c-.06-.07-.14-.12-.21-.18l-.21-.19-.24-.16-.24-.16-.25-.14c-.09-.05-.18-.08-.26-.11-.1-.04-.18-.09-.27-.11-.1-.03-.2-.04-.28-.04h-.31l-.3.01c-.03 0 0-.02 0-.04 0-.1 0-.19.03-.28a1.38 1.38 0 0 1 .28-.48l.22-.18.22-.18.26-.17a5.38 5.38 0 0 0 .5-.39Zm-6.1.87a2.59 2.59 0 0 1 .33.48 1.84 1.84 0 0 1 .23.84l-.01.3V9.11l.01.3v.1l-.01.11v1l.01.3c0 .14-.02.14-.02.3V11.81c0 .14.07.16.02.3a2.27 2.27 0 0 1-.78-.45 2.48 2.48 0 0 1-.21-.21c-.07-.08-.13-.17-.18-.25l-.17-.26-.13-.28a3.18 3.18 0 0 1-.16-.6l-.06-.3-.01-.32.01-.29.04-.28c.02-.1.02-.2.05-.29.02-.1.06-.18.1-.27l.1-.26.12-.26.15-.25.16-.24.2-.2.2-.22Zm-36.52.38a1.82 1.82 0 0 1 .53.07l.24.1.23.14.2.19.17.2.15.23c.04.08.06.17.09.25l.05.27a1.93 1.93 0 0 1 .01.54 1.61 1.61 0 0 1-.3.74 2 2 0 0 1-.6.54 1.6 1.6 0 0 1-.24.1c-.08.04-.17.04-.26.06l-.27.02a1.77 1.77 0 0 1-.53-.08l-.25-.1a1.62 1.62 0 0 1-.23-.14c-.07-.05-.13-.13-.2-.2l-.19-.19c-.05-.07-.1-.16-.13-.24-.05-.08-.07-.16-.1-.25a1.63 1.63 0 0 1-.06-.26c-.02-.1-.04-.18-.04-.27 0-.1.01-.19.03-.28.01-.09.04-.17.07-.26a1.58 1.58 0 0 1 .62-.86l.23-.14.25-.1.26-.07.27-.01Z" fill="#fff"/></svg>