<svg width="128" height="78" fill="none" xmlns="http://www.w3.org/2000/svg"><path fill-rule="evenodd" clip-rule="evenodd" d="M36.65 63.44c.45 0 .87.06 1.28.18.4.12.8.3 1.19.52v2.7c-.29-.24-.6-.45-.94-.63-.33-.17-.7-.26-1.09-.26-.43 0-.78.12-1.03.37-.25.24-.37.58-.37 1.02 0 .38.1.71.32 1 .21.28.47.55.79.8.3.26.65.51 1.02.77.36.25.7.55 1.02.89.3.33.57.73.78 1.17.22.45.32 1 .32 1.63 0 .63-.08 1.2-.26 1.74a3.81 3.81 0 0 1-2.07 2.32c-.5.23-1.08.34-1.73.34-.4 0-.82-.06-1.26-.18-.43-.12-.82-.3-1.14-.53v-2.66c.32.23.65.4 1 .54.33.14.7.21 1.12.21.45 0 .82-.14 1.14-.41.31-.27.47-.65.47-1.12 0-.28-.05-.51-.15-.7-.1-.2-.23-.37-.39-.53-.15-.15-.33-.3-.52-.43l-.6-.4c-.4-.28-.75-.55-1.08-.82a3.88 3.88 0 0 1-1.34-2A5.07 5.07 0 0 1 33.2 66c.17-.5.4-.94.71-1.32.3-.38.69-.68 1.15-.91.46-.22 1-.34 1.6-.34Zm64.33 0c.45 0 .88.06 1.29.18.4.12.8.3 1.19.52v2.7c-.3-.24-.6-.45-.94-.63-.34-.17-.7-.26-1.09-.26-.44 0-.78.12-1.03.37-.25.24-.37.58-.37 1.02 0 .38.1.71.32 1 .2.28.47.55.78.8.31.26.65.51 1.02.77.37.25.71.55 1.03.89a3.8 3.8 0 0 1 1.1 2.8c0 .63-.09 1.2-.26 1.74a3.7 3.7 0 0 1-2.07 2.32c-.5.23-1.09.34-1.73.34-.4 0-.82-.06-1.26-.18-.44-.12-.82-.3-1.14-.53v-2.66c.32.23.65.4.99.54.34.14.71.21 1.13.21.44 0 .82-.14 1.14-.41.3-.27.46-.65.46-1.12 0-.28-.05-.51-.14-.7-.1-.2-.23-.37-.39-.53-.16-.15-.33-.3-.52-.43l-.6-.4c-.4-.28-.75-.55-1.08-.82-.33-.28-.6-.58-.82-.91-.23-.33-.4-.7-.52-1.1a5.07 5.07 0 0 1 .06-2.96c.17-.5.4-.93.7-1.31.31-.38.7-.68 1.16-.91.46-.22 1-.34 1.6-.34Zm-51.9 0c1.08 0 1.97.31 2.67.93.7.62 1.2 1.43 1.5 2.42l-2.72 1.05-.13-.58a2.03 2.03 0 0 0-.24-.59c-.1-.18-.24-.33-.4-.46a1.07 1.07 0 0 0-.66-.18c-.3-.01-.58.06-.8.22-.23.16-.42.38-.57.65-.16.28-.28.6-.38.94a9.28 9.28 0 0 0-.3 2.06 24.18 24.18 0 0 0 .02 2.17c.03.54.12 1.05.26 1.55.13.5.35.93.64 1.27.3.35.7.53 1.21.53.35 0 .63-.1.85-.31.22-.2.39-.46.5-.76.13-.3.2-.61.24-.94.04-.33.06-.62.06-.87h-1.78v-2.62h4.57v1.1c0 .75-.06 1.54-.18 2.36a7.78 7.78 0 0 1-.66 2.25 4.54 4.54 0 0 1-1.38 1.7c-.6.45-1.37.67-2.31.67a4.28 4.28 0 0 1-3.95-2.43 7.97 7.97 0 0 1-.63-1.52 10.67 10.67 0 0 1-.47-3.25c0-.81.08-1.65.23-2.52.15-.87.42-1.66.8-2.38.38-.71.9-1.3 1.54-1.77a4.17 4.17 0 0 1 2.48-.69Zm65.43.23v2.62h-2.83v3.07h2.5v2.62h-2.5v3.18h2.87v2.62h-5.66V63.67h5.62Zm-111.7 0c.45 0 .96.03 1.53.1.56.06 1.1.22 1.62.48.51.26.94.66 1.29 1.2.35.55.52 1.3.52 2.26 0 .79-.15 1.5-.47 2.12a3.61 3.61 0 0 1-1.53 1.53l2.46 6.42H5.28l-2.45-6.52h-.04v6.52H0V63.67h2.8Zm20.68 0v6.3h.04l2.32-6.3h2.85l-2.6 6.5 2.94 7.6H26.1l-2.57-7.18h-.04v7.19H20.7V63.67h2.8Zm37.42 0c.45 0 .95.03 1.53.1.56.06 1.1.22 1.61.48.52.26.95.66 1.3 1.2.35.55.52 1.3.52 2.26 0 .79-.16 1.5-.48 2.12a3.6 3.6 0 0 1-1.52 1.53l2.45 6.42h-2.94l-2.45-6.52h-.04v6.52h-2.8V63.67h2.82Zm15.5 0 3.38 14.1h-2.98l-.52-2.37h-2.83l-.5 2.38h-2.78l3.28-14.11h2.94Zm45.5 0 3.49 8.51.03-.03a6.2 6.2 0 0 1-.18-1.05 13.1 13.1 0 0 1-.04-1.09v-6.34H128v14.1h-2.64l-3.45-8.5-.04.03.13 1.42.02.58v6.48h-2.79V63.67h2.68Zm-106.2 0v14.1h-2.79v-14.1h2.8Zm70.88 0 3.5 8.51.03-.03a6.1 6.1 0 0 1-.18-1.05c-.03-.37-.05-.73-.05-1.09v-6.34h2.8v14.1h-2.65l-3.45-8.5-.03.03.13 1.42.02.58v6.48h-2.8V63.67h2.69ZM74.86 67.3h-.04l-.3 2.13-.6 3.76h1.97l-.72-3.76-.31-2.13ZM3.37 65.97H2.79v3.76l.49.02c.63 0 1.09-.2 1.37-.57.27-.38.4-.86.4-1.45 0-.25-.02-.49-.09-.71a1.4 1.4 0 0 0-.31-.58 1.37 1.37 0 0 0-.6-.37 2.55 2.55 0 0 0-.89-.1h.2Zm58.1 0H60.89v3.76l.49.02c.63 0 1.09-.2 1.36-.57.28-.38.42-.86.42-1.45 0-.25-.03-.49-.1-.71a1.4 1.4 0 0 0-.32-.58 1.38 1.38 0 0 0-.59-.37 2.55 2.55 0 0 0-.88-.1h.2Zm11.6-6.14c.38 0 .7.14.97.42a1.41 1.41 0 0 1-.02 1.97c-.27.27-.6.4-1 .4-.37 0-.69-.13-.96-.4a1.3 1.3 0 0 1-.42-.96c0-.4.14-.74.42-1.02.27-.27.6-.4 1-.4Zm3.9 0c.38 0 .7.14.97.42a1.4 1.4 0 0 1-.02 1.97c-.28.27-.6.4-1 .4-.37 0-.7-.13-.97-.4a1.31 1.31 0 0 1-.41-.96c0-.4.14-.74.41-1.02.28-.27.62-.4 1.02-.4ZM65.49 0a34.33 34.33 0 0 1 32.17 46.66c-.38.99-.8 1.95-1.27 2.9l-4.97-3.9-3.16 2.56c-.26.2-.59.3-.92.26l-4.7-.55h-.07a1.23 1.23 0 0 0-.75.2l-3.96 2.56c-.57.37-1.34.2-1.7-.37l-2.19-3.38-2 1.68 5.2 4.72.02.02a1.52 1.52 0 0 1-2.07 2.24l-1.88-1.7-3.11 1.52-.02.01c-.48.23-1.05.13-1.41-.26h-.01l-1.67-1.78c-.35-.37-.9-.48-1.37-.29l-3.57 1.49c-.46.19-.99.08-1.34-.27l-3.31-3.29c-.36-.35-.9-.45-1.36-.25l-3.8 1.65c-.41.18-.89.12-1.25-.15l-3.12-2.41a1.23 1.23 0 0 0-1.53.01l-3.03 2.45a1.24 1.24 0 0 1-1.74-.18l-3.01-3.72-3.25 2.56a34.21 34.21 0 0 1-4.28-16.6A34.4 34.4 0 0 1 65.5 0ZM53.94 36.38 40.99 46.54l1.06 1.31.02.02c.43.51 1.19.59 1.7.17h.02l2.53-2.05a1.23 1.23 0 0 1 1.53-.02l3.61 2.79c.36.27.84.33 1.25.15l4.04-1.76c.47-.2 1-.1 1.36.26l3.34 3.3c.35.36.88.46 1.34.27l3.63-1.51c.47-.2 1.02-.08 1.37.29l1.57 1.66.01.02c.38.38.95.48 1.43.25l-10.2-9.27-2.65-2.4-4.01-3.64Zm29.26 2.81-6.87 5.77.73 1.13c.37.58 1.14.74 1.7.37l2.32-1.5.04-.02c.21-.13.46-.2.7-.18h.08l4.52.54c.33.04.66-.06.92-.27l1.62-1.31-5.76-4.53ZM65.5 24.97a9.43 9.43 0 0 0-9.42 9.21l4.17 3.79 2.17 1.97 4.17 3.79a9.43 9.43 0 0 0 8.33-9.35 9.43 9.43 0 0 0-9.42-9.4Zm-12.03 7.88h-6.04a1.53 1.53 0 1 0 0 3.05h2.17l3.87-3.03v-.02Zm30.1 0h-4.51a1.53 1.53 0 1 0 0 3.06h4.5a1.53 1.53 0 1 0 0-3.06Zm-4.21-12.3c-.6-.6-1.57-.6-2.17 0L74 23.72a1.53 1.53 0 0 0 2.17 2.16l3.19-3.19c.6-.6.6-1.56 0-2.15Zm-25.55 0a1.53 1.53 0 0 0-2.17 2.15l3.2 3.19a1.52 1.52 0 0 0 2.16 0c.6-.6.6-1.56 0-2.16l-3.2-3.18Zm11.69-5.74c-.85 0-1.53.69-1.53 1.53v4.5a1.52 1.52 0 0 0 1.53 1.53c.84 0 1.53-.68 1.53-1.53v-4.5c0-.84-.69-1.53-1.53-1.53Z" fill="#fff"/></svg>