<svg width="128" height="20" fill="none" xmlns="http://www.w3.org/2000/svg"><path fill-rule="evenodd" clip-rule="evenodd" d="M6.86 0c3.13 0 5.65 1.7 5.65 4.41 0 1.86-1.04 3.23-1.45 3.23-.38 0-2.36-1.18-2.36-1.53 0-.13.38-.75.38-1.37 0-1.13-.8-1.94-2.16-1.94-1.35 0-2.3.89-2.3 2.2 0 1.4 1.53 2.24 3.53 3.24l.47.24.48.24c2.5 1.3 4.87 2.8 4.87 5.52 0 3.47-3.07 5.76-7.16 5.76C2.8 20 0 18.03 0 14.5c0-2.25 1.43-4 1.76-4 .44 0 2.33 1.29 2.33 1.64 0 .22-.66.91-.66 2.1 0 1.75 1.48 2.93 3.49 2.93 2.08 0 3.4-1.2 3.4-2.85 0-1.56-1.37-2.45-4.4-3.88C3.3 9.21 1.05 7.9 1.05 4.93 1.04 2.15 3.5 0 6.86 0Zm86.48 0c3.3 0 5.38 2.2 5.38 5.06 0 2.83-2.17 5-4.97 5.76a1.9 1.9 0 0 1-.52.08c-.36 0-1.21-2.13-1.21-2.47 0-.11.08-.2.22-.25 1.92-.75 3.1-1.75 3.1-3.25 0-1.16-.71-2-2.06-2-2.8 0-4.83 3.64-4.83 7.54 0 3.98 2.64 6.6 6.18 6.6a6.42 6.42 0 0 0 5.58-3 8.5 8.5 0 0 1-.04-.85c0-3.77 2.47-6.6 5.88-6.6A5.5 5.5 0 0 1 109.83 8l.09-.02v-.35c0-.4.27-.65.63-.65h2.1c.42 0 .67.24.67.7 0 .51-.3 4.42-.3 6.54 0 1.21.49 2.21 1.45 2.21 1.34 0 2.48-1.66 3.13-3.15V7.64c0-.4.22-.67.63-.67h2.2c.43 0 .68.24.68.7 0 1.5-.14 5.39-.14 6.4 0 1.38.47 2.35 1.6 2.35 1.5 0 2.8-1.94 3.29-3.31.06-.14.1-.22.27-.22.25 0 1.87.73 1.87 1.03 0 .08-.03.19-.06.27-.76 2.31-2.8 5.16-6.14 5.16-1.82 0-3.12-.76-3.75-2.18a5.83 5.83 0 0 1-4.48 2.18c-1.98 0-3.4-.91-3.4-2.47v-.27l-.12-.03a4.87 4.87 0 0 1-4.6 2.77 4.87 4.87 0 0 1-4.3-2.34A9.16 9.16 0 0 1 94.16 20c-5.57 0-9.36-3.74-9.36-9.48C84.8 4.71 88.26 0 93.34 0ZM54.6.56c.47 0 .69.27.69.73 0 1.78-.36 10.15-.36 12.95 0 1.24.44 2.18 1.54 2.18 1.41 0 2.6-1.83 3.18-3.15V7.64c0-.4.22-.67.63-.67h2.2c.44 0 .69.24.69.7 0 1.5-.14 5.39-.14 6.4 0 1.38.47 2.35 1.6 2.35 1.16 0 2.2-1.16 2.83-2.32a7.15 7.15 0 0 1-.07-1.02c0-3.71 2.75-6.46 6.84-6.46 3.92 0 6.47 2.75 6.47 6.25 0 3.2-2.3 6.48-6.86 6.48a6.3 6.3 0 0 1-5.28-2.46 5.91 5.91 0 0 1-4.7 2.46c-1.82 0-3.11-.76-3.75-2.17a5.9 5.9 0 0 1-4.46 2.17c-2.28 0-3.87-1.05-3.87-2.66v-.22l-.11-.02a5 5 0 0 1-4.56 2.9 4.9 4.9 0 0 1-4.3-2.28 5.88 5.88 0 0 1-4.59 2.28c-2.22 0-3.6-1.15-3.6-2.74 0-.14 0-.35.03-.43l-.1-.03a5.2 5.2 0 0 1-4.76 3.2c-1.77 0-2.98-.81-3.58-2.2a6.28 6.28 0 0 1-4.87 2.2c-2.99 0-5.02-1.93-5.02-4.84V9.69h-.71c-.42 0-.6-.13-.6-.54v-1.5c0-.3.13-.52.49-.52h.82V4.06c0-.45.25-.72.66-.72h2.08c.44 0 .66.27.66.72V7.2c.88-.03 1.92-.06 2.58-.06.25 0 .44.14.44.43v1.65c0 .37-.16.48-.46.48-.64 0-1.65-.03-2.56-.03v3.5c0 2.05.55 3.26 2.34 3.26 1.93 0 3.17-1.9 3.7-3.2V7.67c0-.48.25-.7.69-.7h2.14c.46 0 .68.27.68.67 0 1.67-.13 4.45-.13 6.25 0 1.7.4 2.53 1.64 2.53 1.92 0 3.57-3.77 3.57-7.83v-.92c0-.43.2-.7.66-.7h2.17c.46 0 .68.24.68.7 0 .48-.12 2.2-.2 3.95l-.02.56c-.03.73-.05 1.45-.05 2.06 0 1.18.5 2.18 1.5 2.18 1.14 0 2.12-1.18 2.75-2.3-.04-.3-.05-.61-.05-.93 0-3.53 2.28-6.57 5.95-6.57 1.7 0 3.24.8 4.1 1.45l.1-.02V1.26c0-.45.22-.7.63-.7h2.03Zm19.57 8.75c-2.06 0-3.2 1.86-3.2 3.75 0 2.04 1.2 3.6 3.06 3.6 2 0 3.08-1.77 3.08-3.9 0-1.91-.99-3.45-2.94-3.45Zm-25.33.25c-2 0-3.51 1.58-3.51 3.82 0 1.86 1.01 3.04 2.5 3.04 2.41 0 3.7-3.47 3.7-5.68a4.14 4.14 0 0 0-2.69-1.18Zm58.37 0c-2 0-3.5 1.58-3.5 3.85 0 1.8 1 3.01 2.44 3.01 2.57 0 3.76-3.63 3.76-5.68a4.15 4.15 0 0 0-2.7-1.18ZM61.48 1.2c1.01 0 1.86.57 1.86 1.72 0 1.1-.74 1.89-1.97 1.89-1.08 0-1.82-.73-1.82-1.86 0-1.02.8-1.75 1.93-1.75Zm57.93 0c1.02 0 1.87.57 1.87 1.72 0 1.1-.74 1.89-1.98 1.89-1.07 0-1.81-.73-1.81-1.86 0-1.02.8-1.75 1.92-1.75Z" fill="#fff"/></svg>