<svg width="16" height="16" fill="none" xmlns="http://www.w3.org/2000/svg"><path fill-rule="evenodd" clip-rule="evenodd" d="M8.373 0a.117.117 0 0 1 .1169.117v.1224a.117.117 0 0 1-.117.1169h-.1342v.3944c4.1006.126 7.3863 3.49 7.3863 7.6223 0 4.2126-3.4136 7.627-7.6246 7.627S.375 12.5856.375 8.373C.375 4.241 3.661.877 7.7613.7508V.3563h-.1342a.1169.1169 0 0 1-.117-.117V.117c0-.0645.0524-.1169.117-.1169h.7458Zm-.182 1.7506V2.42a.191.191 0 1 1-.382 0v-.6693c-3.5074.0998-6.3309 2.9235-6.4302 6.4316h.669a.1911.1911 0 0 1 0 .3822h-.669c.0998 3.5079 2.923 6.3318 6.4301 6.4316v-.6692a.1912.1912 0 1 1 .3822 0v.6692c3.5073-.0994 6.3303-2.9235 6.4301-6.4316h-.6691a.191.191 0 0 1 0-.3822h.6691c-.0993-3.5084-2.9225-6.3322-6.4301-6.4316ZM8 8.017a.3563.3563 0 0 1 .3562.3563.3562.3562 0 0 1-.006.0591l2.2659 2.0495a.4135.4135 0 0 1 .121.1963l.0306.1112a.0766.0766 0 0 1-.0867.096l-.1138-.0194a.412.412 0 0 1-.2074-.1007L8.0936 8.7155A.3485.3485 0 0 1 8 8.7295a.3563.3563 0 0 1 0-.7125Z" fill="#fff"/></svg>