<svg width="32" height="16" fill="none" xmlns="http://www.w3.org/2000/svg"><path fill-rule="evenodd" clip-rule="evenodd" d="M28.9 0C30.6 0 32 1.4 32 3.13v9.75A3.11 3.11 0 0 1 28.9 16H3.1C1.4 16 0 14.6 0 12.87V3.13A3.11 3.11 0 0 1 3.1 0h25.8ZM12.7 2.91c-.68 0-1.28.12-1.81.35a2.8 2.8 0 0 0-1.23 1c-.3.44-.44.95-.44 1.54a2.4 2.4 0 0 0 1.47 2.35c.4.18.92.37 1.56.56.47.13.84.25 1.1.36.28.11.5.26.68.45.18.2.27.44.27.73 0 .36-.13.65-.4.88-.26.22-.63.33-1.09.33-.45 0-.8-.12-1.06-.36-.25-.22-.4-.53-.43-.92v-.04H9.2v.06c.02.58.19 1.09.5 1.52.32.44.75.79 1.3 1.02.56.24 1.18.36 1.87.36.72 0 1.35-.14 1.88-.4a2.83 2.83 0 0 0 1.61-2.57c0-.63-.15-1.12-.44-1.5-.3-.38-.64-.67-1.05-.86-.4-.19-.93-.38-1.57-.57-.47-.14-.83-.27-1.1-.38a2 2 0 0 1-.64-.42.9.9 0 0 1-.26-.67c0-.38.11-.67.34-.87.23-.2.54-.3.93-.3.44 0 .8.12 1.07.34.25.21.4.48.42.8v.05h2.18v-.06a2.76 2.76 0 0 0-1.05-2.03 3.9 3.9 0 0 0-2.48-.75Zm10.68 0a5.08 5.08 0 0 0-4.38 2.47A5.09 5.09 0 0 0 18.33 8c0 .98.23 1.85.68 2.63a5.08 5.08 0 0 0 4.38 2.47c.93 0 1.78-.22 2.55-.66a4.82 4.82 0 0 0 1.83-1.81c.45-.78.67-1.65.67-2.63 0-.97-.22-1.84-.67-2.62a4.84 4.84 0 0 0-1.82-1.81 5.07 5.07 0 0 0-2.56-.66Zm-16.63.14H4.78V13h1.98V3.05ZM23.4 4.71c.6 0 1.12.13 1.57.4.46.26.81.64 1.06 1.14.26.5.39 1.08.39 1.75 0 .66-.13 1.25-.39 1.75a2.78 2.78 0 0 1-2.63 1.57c-.59 0-1.12-.14-1.57-.4a2.76 2.76 0 0 1-1.07-1.17A3.84 3.84 0 0 1 20.37 8c0-.67.13-1.25.38-1.75s.61-.88 1.07-1.14c.45-.27.98-.4 1.57-.4Z" fill="#fff"/></svg>