<svg width="128" height="32" fill="none" xmlns="http://www.w3.org/2000/svg"><path fill-rule="evenodd" clip-rule="evenodd" d="M9.6 16.82v3.26H4.12c-.13 0-.22.11-.22.25v2.22c0 .1.1.2.22.2h3.9c1.06 0 1.78.72 1.78 1.78v5.7c0 1.05-.72 1.77-1.77 1.77H0v-3.28h5.67c.16 0 .25-.1.25-.2V26.3c0-.11-.1-.2-.25-.2h-3.9A1.69 1.69 0 0 1 0 24.33v-5.74c0-1.05.72-1.77 1.77-1.77H9.6Zm13.45 0v3.28h-3.43V32h-3.9V20.1h-3.43v-3.28h10.76Zm12.3 0c1.06 0 1.78.72 1.78 1.77v11.63c0 1.06-.72 1.78-1.77 1.78h-7.78c-1.06 0-1.77-.72-1.77-1.78V18.6c0-1.05.71-1.77 1.77-1.77h7.78Zm15.14 0c.97 0 1.77.78 1.77 1.7v3.92h-3.9v-2.11c0-.14-.11-.25-.2-.25h-2.85a.25.25 0 0 0-.24.25v8.16c0 .14.1.23.24.23h2.85c.09 0 .2-.1.2-.23v-2.16h3.9v3.94c0 .99-.8 1.73-1.77 1.73h-7.6a1.7 1.7 0 0 1-1.73-1.73V18.53c0-.93.77-1.71 1.73-1.71h7.6ZM55.12 0c.29 0 .57.03.84.08h.06l.1.03a4.51 4.51 0 0 1 .7.21l.14.06.35.16.15.09.2.12.17.11a4.74 4.74 0 0 1 .52.43l.11.1a4.73 4.73 0 0 1 1.39 3.36l.01 18.39 3.93-6.32h4.35l-4.38 6.59L68.32 32h-4.26l-2.96-5.8-1.24 2V32h-3.9V4.75a.85.85 0 0 0-.84-.85.83.83 0 0 0-.6.25l-.7.71-2.76 2.76-2.75-2.76-.71-.71a.84.84 0 0 0-1.2 0 .85.85 0 0 0 0 1.2l.72.71 2.75 2.76 1.2 1.2 1.18-1.2 2.42-2.42v5.52l-3.6 3.61-7.41-7.42A4.77 4.77 0 0 1 47 0c1.27 0 2.46.5 3.35 1.4l.71.7.71-.7A4.7 4.7 0 0 1 55.12 0ZM74.8 16.82v5.8h3.7v-5.8h3.9V32h-3.9v-6.03h-3.7V32h-3.9V16.82h3.9Zm21.32 0c1.05 0 1.77.72 1.77 1.77v11.63c0 1.06-.72 1.78-1.77 1.78h-7.78c-1.06 0-1.77-.72-1.77-1.78V18.6c0-1.05.71-1.77 1.77-1.77h7.78Zm9.82 0v11.9h4.82V32h-8.7V16.82h3.88Zm12.08 0 3.05 7.08 2.8-7.08H128V32h-3.68v-8.75l-2.55 6.03h-1.53l-2.57-5.87V32h-3.6V16.82h3.95ZM32.98 20.1h-3.07c-.1 0-.2.11-.2.25v8.16c0 .12.1.2.2.2h3.07c.13 0 .25-.08.25-.2v-8.16a.25.25 0 0 0-.25-.25Zm60.76 0h-3.07c-.09 0-.2.11-.2.25v8.16c0 .12.11.2.2.2h3.07c.14 0 .25-.08.25-.2v-8.16a.25.25 0 0 0-.25-.25Z" fill="#fff"/></svg>